<mxfile host="app.diagrams.net" agent="Mozilla/5.0 (Windows NT 10.0; Win64; x64) AppleWebKit/537.36 (KHTML, like Gecko) Chrome/136.0.0.0 Safari/537.36" version="27.0.1">
  <diagram name="第 1 页" id="japMbIAOzuZkcFbrZrBM">
    <mxGraphModel dx="679" dy="386" grid="1" gridSize="10" guides="1" tooltips="1" connect="1" arrows="1" fold="1" page="1" pageScale="1" pageWidth="1654" pageHeight="2336" math="0" shadow="0">
      <root>
        <mxCell id="0" />
        <mxCell id="1" parent="0" />
        <mxCell id="VER0p9L-tkisMN6lT24T-41" style="edgeStyle=elbowEdgeStyle;rounded=0;orthogonalLoop=1;jettySize=auto;elbow=vertical;html=1;entryX=0.5;entryY=0;entryDx=0;entryDy=0;labelBackgroundColor=none;fontColor=default;" parent="1" source="VER0p9L-tkisMN6lT24T-1" target="VER0p9L-tkisMN6lT24T-2" edge="1">
          <mxGeometry relative="1" as="geometry" />
        </mxCell>
        <mxCell id="VER0p9L-tkisMN6lT24T-43" style="edgeStyle=elbowEdgeStyle;rounded=0;orthogonalLoop=1;jettySize=auto;elbow=vertical;html=1;entryX=0.5;entryY=0;entryDx=0;entryDy=0;labelBackgroundColor=none;fontColor=default;" parent="1" source="VER0p9L-tkisMN6lT24T-1" target="VER0p9L-tkisMN6lT24T-7" edge="1">
          <mxGeometry relative="1" as="geometry" />
        </mxCell>
        <mxCell id="VER0p9L-tkisMN6lT24T-1" value="嵌入式驱动适配" style="rounded=0;whiteSpace=wrap;html=1;labelBackgroundColor=none;" parent="1" vertex="1">
          <mxGeometry x="420" y="280" width="80" height="40" as="geometry" />
        </mxCell>
        <mxCell id="VER0p9L-tkisMN6lT24T-2" value="BRG628驱动" style="rounded=0;whiteSpace=wrap;html=1;labelBackgroundColor=none;" parent="1" vertex="1">
          <mxGeometry x="280" y="400" width="80" height="30" as="geometry" />
        </mxCell>
        <mxCell id="VER0p9L-tkisMN6lT24T-7" value="LCD驱动" style="rounded=0;whiteSpace=wrap;html=1;labelBackgroundColor=none;" parent="1" vertex="1">
          <mxGeometry x="630" y="400" width="80" height="30" as="geometry" />
        </mxCell>
        <mxCell id="w4B4ZbAc3VxCVt6JShG3-1" value="HDMI转GVI" style="rounded=0;whiteSpace=wrap;html=1;labelBackgroundColor=none;fillColor=none;" vertex="1" parent="1">
          <mxGeometry x="200" y="480" width="40" height="70" as="geometry" />
        </mxCell>
        <mxCell id="w4B4ZbAc3VxCVt6JShG3-3" value="" style="rounded=0;whiteSpace=wrap;html=1;labelBackgroundColor=none;" vertex="1" parent="1">
          <mxGeometry x="630" y="520" width="80" height="30" as="geometry" />
        </mxCell>
        <mxCell id="w4B4ZbAc3VxCVt6JShG3-7" value="HDMI转DSI" style="rounded=0;whiteSpace=wrap;html=1;labelBackgroundColor=none;fillColor=none;" vertex="1" parent="1">
          <mxGeometry x="140" y="480" width="40" height="70" as="geometry" />
        </mxCell>
        <mxCell id="w4B4ZbAc3VxCVt6JShG3-10" value="HDMI转LVDS" style="rounded=0;whiteSpace=wrap;html=1;labelBackgroundColor=none;fillColor=none;" vertex="1" parent="1">
          <mxGeometry x="260" y="480" width="40" height="70" as="geometry" />
        </mxCell>
        <mxCell id="w4B4ZbAc3VxCVt6JShG3-11" value="RGB转DSI" style="rounded=0;whiteSpace=wrap;html=1;labelBackgroundColor=none;fillColor=none;" vertex="1" parent="1">
          <mxGeometry x="320" y="480" width="40" height="70" as="geometry" />
        </mxCell>
        <mxCell id="w4B4ZbAc3VxCVt6JShG3-12" value="RGB转LVDS" style="rounded=0;whiteSpace=wrap;html=1;labelBackgroundColor=none;fillColor=none;" vertex="1" parent="1">
          <mxGeometry x="440" y="480" width="40" height="70" as="geometry" />
        </mxCell>
        <mxCell id="w4B4ZbAc3VxCVt6JShG3-13" value="RGB转GVI" style="rounded=0;whiteSpace=wrap;html=1;labelBackgroundColor=none;fillColor=none;" vertex="1" parent="1">
          <mxGeometry x="380" y="480" width="40" height="70" as="geometry" />
        </mxCell>
      </root>
    </mxGraphModel>
  </diagram>
</mxfile>
